<?xml version="1.0" encoding="utf-8" standalone="no"?>
<!DOCTYPE svg PUBLIC "-//W3C//DTD SVG 1.1//EN"
  "http://www.w3.org/Graphics/SVG/1.1/DTD/svg11.dtd">
<!-- Created with matplotlib (https://matplotlib.org/) -->
<svg height="345.6pt" version="1.1" viewBox="0 0 460.8 345.6" width="460.8pt" xmlns="http://www.w3.org/2000/svg" xmlns:xlink="http://www.w3.org/1999/xlink">
 <defs>
  <style type="text/css">
*{stroke-linecap:butt;stroke-linejoin:round;}
  </style>
 </defs>
 <g id="figure_1">
  <g id="patch_1">
   <path d="M 0 345.6 
L 460.8 345.6 
L 460.8 0 
L 0 0 
z
" style="fill:#ffffff;"/>
  </g>
  <g id="axes_1">
   <g id="patch_2">
    <path d="M 57.6 307.584 
L 414.72 307.584 
L 414.72 41.472 
L 57.6 41.472 
z
" style="fill:#ffffff;"/>
   </g>
   <g id="matplotlib.axis_1">
    <g id="xtick_1">
     <g id="line2d_1">
      <path clip-path="url(#p78e9d58727)" d="M 90.065455 307.584 
L 90.065455 41.472 
" style="fill:none;stroke:#b0b0b0;stroke-dasharray:0.8,1.32;stroke-dashoffset:0;stroke-width:0.8;"/>
     </g>
     <g id="line2d_2">
      <defs>
       <path d="M 0 0 
L 0 3.5 
" id="mcf4cc79d5b" style="stroke:#000000;stroke-width:0.8;"/>
      </defs>
      <g>
       <use style="stroke:#000000;stroke-width:0.8;" x="90.065455" xlink:href="#mcf4cc79d5b" y="307.584"/>
      </g>
     </g>
     <g id="text_1">
      <!-- 400 -->
      <defs>
       <path d="M 37.796875 64.3125 
L 12.890625 25.390625 
L 37.796875 25.390625 
z
M 35.203125 72.90625 
L 47.609375 72.90625 
L 47.609375 25.390625 
L 58.015625 25.390625 
L 58.015625 17.1875 
L 47.609375 17.1875 
L 47.609375 0 
L 37.796875 0 
L 37.796875 17.1875 
L 4.890625 17.1875 
L 4.890625 26.703125 
z
" id="DejaVuSans-52"/>
       <path d="M 31.78125 66.40625 
Q 24.171875 66.40625 20.328125 58.90625 
Q 16.5 51.421875 16.5 36.375 
Q 16.5 21.390625 20.328125 13.890625 
Q 24.171875 6.390625 31.78125 6.390625 
Q 39.453125 6.390625 43.28125 13.890625 
Q 47.125 21.390625 47.125 36.375 
Q 47.125 51.421875 43.28125 58.90625 
Q 39.453125 66.40625 31.78125 66.40625 
z
M 31.78125 74.21875 
Q 44.046875 74.21875 50.515625 64.515625 
Q 56.984375 54.828125 56.984375 36.375 
Q 56.984375 17.96875 50.515625 8.265625 
Q 44.046875 -1.421875 31.78125 -1.421875 
Q 19.53125 -1.421875 13.0625 8.265625 
Q 6.59375 17.96875 6.59375 36.375 
Q 6.59375 54.828125 13.0625 64.515625 
Q 19.53125 74.21875 31.78125 74.21875 
z
" id="DejaVuSans-48"/>
      </defs>
      <g transform="translate(80.521705 322.182437)scale(0.1 -0.1)">
       <use xlink:href="#DejaVuSans-52"/>
       <use x="63.623047" xlink:href="#DejaVuSans-48"/>
       <use x="127.246094" xlink:href="#DejaVuSans-48"/>
      </g>
     </g>
    </g>
    <g id="xtick_2">
     <g id="line2d_3">
      <path clip-path="url(#p78e9d58727)" d="M 130.647273 307.584 
L 130.647273 41.472 
" style="fill:none;stroke:#b0b0b0;stroke-dasharray:0.8,1.32;stroke-dashoffset:0;stroke-width:0.8;"/>
     </g>
     <g id="line2d_4">
      <g>
       <use style="stroke:#000000;stroke-width:0.8;" x="130.647273" xlink:href="#mcf4cc79d5b" y="307.584"/>
      </g>
     </g>
     <g id="text_2">
      <!-- 450 -->
      <defs>
       <path d="M 10.796875 72.90625 
L 49.515625 72.90625 
L 49.515625 64.59375 
L 19.828125 64.59375 
L 19.828125 46.734375 
Q 21.96875 47.46875 24.109375 47.828125 
Q 26.265625 48.1875 28.421875 48.1875 
Q 40.625 48.1875 47.75 41.5 
Q 54.890625 34.8125 54.890625 23.390625 
Q 54.890625 11.625 47.5625 5.09375 
Q 40.234375 -1.421875 26.90625 -1.421875 
Q 22.3125 -1.421875 17.546875 -0.640625 
Q 12.796875 0.140625 7.71875 1.703125 
L 7.71875 11.625 
Q 12.109375 9.234375 16.796875 8.0625 
Q 21.484375 6.890625 26.703125 6.890625 
Q 35.15625 6.890625 40.078125 11.328125 
Q 45.015625 15.765625 45.015625 23.390625 
Q 45.015625 31 40.078125 35.4375 
Q 35.15625 39.890625 26.703125 39.890625 
Q 22.75 39.890625 18.8125 39.015625 
Q 14.890625 38.140625 10.796875 36.28125 
z
" id="DejaVuSans-53"/>
      </defs>
      <g transform="translate(121.103523 322.182437)scale(0.1 -0.1)">
       <use xlink:href="#DejaVuSans-52"/>
       <use x="63.623047" xlink:href="#DejaVuSans-53"/>
       <use x="127.246094" xlink:href="#DejaVuSans-48"/>
      </g>
     </g>
    </g>
    <g id="xtick_3">
     <g id="line2d_5">
      <path clip-path="url(#p78e9d58727)" d="M 171.229091 307.584 
L 171.229091 41.472 
" style="fill:none;stroke:#b0b0b0;stroke-dasharray:0.8,1.32;stroke-dashoffset:0;stroke-width:0.8;"/>
     </g>
     <g id="line2d_6">
      <g>
       <use style="stroke:#000000;stroke-width:0.8;" x="171.229091" xlink:href="#mcf4cc79d5b" y="307.584"/>
      </g>
     </g>
     <g id="text_3">
      <!-- 500 -->
      <g transform="translate(161.685341 322.182437)scale(0.1 -0.1)">
       <use xlink:href="#DejaVuSans-53"/>
       <use x="63.623047" xlink:href="#DejaVuSans-48"/>
       <use x="127.246094" xlink:href="#DejaVuSans-48"/>
      </g>
     </g>
    </g>
    <g id="xtick_4">
     <g id="line2d_7">
      <path clip-path="url(#p78e9d58727)" d="M 211.810909 307.584 
L 211.810909 41.472 
" style="fill:none;stroke:#b0b0b0;stroke-dasharray:0.8,1.32;stroke-dashoffset:0;stroke-width:0.8;"/>
     </g>
     <g id="line2d_8">
      <g>
       <use style="stroke:#000000;stroke-width:0.8;" x="211.810909" xlink:href="#mcf4cc79d5b" y="307.584"/>
      </g>
     </g>
     <g id="text_4">
      <!-- 550 -->
      <g transform="translate(202.267159 322.182437)scale(0.1 -0.1)">
       <use xlink:href="#DejaVuSans-53"/>
       <use x="63.623047" xlink:href="#DejaVuSans-53"/>
       <use x="127.246094" xlink:href="#DejaVuSans-48"/>
      </g>
     </g>
    </g>
    <g id="xtick_5">
     <g id="line2d_9">
      <path clip-path="url(#p78e9d58727)" d="M 252.392727 307.584 
L 252.392727 41.472 
" style="fill:none;stroke:#b0b0b0;stroke-dasharray:0.8,1.32;stroke-dashoffset:0;stroke-width:0.8;"/>
     </g>
     <g id="line2d_10">
      <g>
       <use style="stroke:#000000;stroke-width:0.8;" x="252.392727" xlink:href="#mcf4cc79d5b" y="307.584"/>
      </g>
     </g>
     <g id="text_5">
      <!-- 600 -->
      <defs>
       <path d="M 33.015625 40.375 
Q 26.375 40.375 22.484375 35.828125 
Q 18.609375 31.296875 18.609375 23.390625 
Q 18.609375 15.53125 22.484375 10.953125 
Q 26.375 6.390625 33.015625 6.390625 
Q 39.65625 6.390625 43.53125 10.953125 
Q 47.40625 15.53125 47.40625 23.390625 
Q 47.40625 31.296875 43.53125 35.828125 
Q 39.65625 40.375 33.015625 40.375 
z
M 52.59375 71.296875 
L 52.59375 62.3125 
Q 48.875 64.0625 45.09375 64.984375 
Q 41.3125 65.921875 37.59375 65.921875 
Q 27.828125 65.921875 22.671875 59.328125 
Q 17.53125 52.734375 16.796875 39.40625 
Q 19.671875 43.65625 24.015625 45.921875 
Q 28.375 48.1875 33.59375 48.1875 
Q 44.578125 48.1875 50.953125 41.515625 
Q 57.328125 34.859375 57.328125 23.390625 
Q 57.328125 12.15625 50.6875 5.359375 
Q 44.046875 -1.421875 33.015625 -1.421875 
Q 20.359375 -1.421875 13.671875 8.265625 
Q 6.984375 17.96875 6.984375 36.375 
Q 6.984375 53.65625 15.1875 63.9375 
Q 23.390625 74.21875 37.203125 74.21875 
Q 40.921875 74.21875 44.703125 73.484375 
Q 48.484375 72.75 52.59375 71.296875 
z
" id="DejaVuSans-54"/>
      </defs>
      <g transform="translate(242.848977 322.182437)scale(0.1 -0.1)">
       <use xlink:href="#DejaVuSans-54"/>
       <use x="63.623047" xlink:href="#DejaVuSans-48"/>
       <use x="127.246094" xlink:href="#DejaVuSans-48"/>
      </g>
     </g>
    </g>
    <g id="xtick_6">
     <g id="line2d_11">
      <path clip-path="url(#p78e9d58727)" d="M 292.974545 307.584 
L 292.974545 41.472 
" style="fill:none;stroke:#b0b0b0;stroke-dasharray:0.8,1.32;stroke-dashoffset:0;stroke-width:0.8;"/>
     </g>
     <g id="line2d_12">
      <g>
       <use style="stroke:#000000;stroke-width:0.8;" x="292.974545" xlink:href="#mcf4cc79d5b" y="307.584"/>
      </g>
     </g>
     <g id="text_6">
      <!-- 650 -->
      <g transform="translate(283.430795 322.182437)scale(0.1 -0.1)">
       <use xlink:href="#DejaVuSans-54"/>
       <use x="63.623047" xlink:href="#DejaVuSans-53"/>
       <use x="127.246094" xlink:href="#DejaVuSans-48"/>
      </g>
     </g>
    </g>
    <g id="xtick_7">
     <g id="line2d_13">
      <path clip-path="url(#p78e9d58727)" d="M 333.556364 307.584 
L 333.556364 41.472 
" style="fill:none;stroke:#b0b0b0;stroke-dasharray:0.8,1.32;stroke-dashoffset:0;stroke-width:0.8;"/>
     </g>
     <g id="line2d_14">
      <g>
       <use style="stroke:#000000;stroke-width:0.8;" x="333.556364" xlink:href="#mcf4cc79d5b" y="307.584"/>
      </g>
     </g>
     <g id="text_7">
      <!-- 700 -->
      <defs>
       <path d="M 8.203125 72.90625 
L 55.078125 72.90625 
L 55.078125 68.703125 
L 28.609375 0 
L 18.3125 0 
L 43.21875 64.59375 
L 8.203125 64.59375 
z
" id="DejaVuSans-55"/>
      </defs>
      <g transform="translate(324.012614 322.182437)scale(0.1 -0.1)">
       <use xlink:href="#DejaVuSans-55"/>
       <use x="63.623047" xlink:href="#DejaVuSans-48"/>
       <use x="127.246094" xlink:href="#DejaVuSans-48"/>
      </g>
     </g>
    </g>
    <g id="xtick_8">
     <g id="line2d_15">
      <path clip-path="url(#p78e9d58727)" d="M 374.138182 307.584 
L 374.138182 41.472 
" style="fill:none;stroke:#b0b0b0;stroke-dasharray:0.8,1.32;stroke-dashoffset:0;stroke-width:0.8;"/>
     </g>
     <g id="line2d_16">
      <g>
       <use style="stroke:#000000;stroke-width:0.8;" x="374.138182" xlink:href="#mcf4cc79d5b" y="307.584"/>
      </g>
     </g>
     <g id="text_8">
      <!-- 750 -->
      <g transform="translate(364.594432 322.182437)scale(0.1 -0.1)">
       <use xlink:href="#DejaVuSans-55"/>
       <use x="63.623047" xlink:href="#DejaVuSans-53"/>
       <use x="127.246094" xlink:href="#DejaVuSans-48"/>
      </g>
     </g>
    </g>
    <g id="xtick_9">
     <g id="line2d_17">
      <path clip-path="url(#p78e9d58727)" d="M 414.72 307.584 
L 414.72 41.472 
" style="fill:none;stroke:#b0b0b0;stroke-dasharray:0.8,1.32;stroke-dashoffset:0;stroke-width:0.8;"/>
     </g>
     <g id="line2d_18">
      <g>
       <use style="stroke:#000000;stroke-width:0.8;" x="414.72" xlink:href="#mcf4cc79d5b" y="307.584"/>
      </g>
     </g>
     <g id="text_9">
      <!-- 800 -->
      <defs>
       <path d="M 31.78125 34.625 
Q 24.75 34.625 20.71875 30.859375 
Q 16.703125 27.09375 16.703125 20.515625 
Q 16.703125 13.921875 20.71875 10.15625 
Q 24.75 6.390625 31.78125 6.390625 
Q 38.8125 6.390625 42.859375 10.171875 
Q 46.921875 13.96875 46.921875 20.515625 
Q 46.921875 27.09375 42.890625 30.859375 
Q 38.875 34.625 31.78125 34.625 
z
M 21.921875 38.8125 
Q 15.578125 40.375 12.03125 44.71875 
Q 8.5 49.078125 8.5 55.328125 
Q 8.5 64.0625 14.71875 69.140625 
Q 20.953125 74.21875 31.78125 74.21875 
Q 42.671875 74.21875 48.875 69.140625 
Q 55.078125 64.0625 55.078125 55.328125 
Q 55.078125 49.078125 51.53125 44.71875 
Q 48 40.375 41.703125 38.8125 
Q 48.828125 37.15625 52.796875 32.3125 
Q 56.78125 27.484375 56.78125 20.515625 
Q 56.78125 9.90625 50.3125 4.234375 
Q 43.84375 -1.421875 31.78125 -1.421875 
Q 19.734375 -1.421875 13.25 4.234375 
Q 6.78125 9.90625 6.78125 20.515625 
Q 6.78125 27.484375 10.78125 32.3125 
Q 14.796875 37.15625 21.921875 38.8125 
z
M 18.3125 54.390625 
Q 18.3125 48.734375 21.84375 45.5625 
Q 25.390625 42.390625 31.78125 42.390625 
Q 38.140625 42.390625 41.71875 45.5625 
Q 45.3125 48.734375 45.3125 54.390625 
Q 45.3125 60.0625 41.71875 63.234375 
Q 38.140625 66.40625 31.78125 66.40625 
Q 25.390625 66.40625 21.84375 63.234375 
Q 18.3125 60.0625 18.3125 54.390625 
z
" id="DejaVuSans-56"/>
      </defs>
      <g transform="translate(405.17625 322.182437)scale(0.1 -0.1)">
       <use xlink:href="#DejaVuSans-56"/>
       <use x="63.623047" xlink:href="#DejaVuSans-48"/>
       <use x="127.246094" xlink:href="#DejaVuSans-48"/>
      </g>
     </g>
    </g>
    <g id="text_10">
     <!-- Wavelength [nm] -->
     <defs>
      <path d="M 3.328125 72.90625 
L 13.28125 72.90625 
L 28.609375 11.28125 
L 43.890625 72.90625 
L 54.984375 72.90625 
L 70.3125 11.28125 
L 85.59375 72.90625 
L 95.609375 72.90625 
L 77.296875 0 
L 64.890625 0 
L 49.515625 63.28125 
L 33.984375 0 
L 21.578125 0 
z
" id="DejaVuSans-87"/>
      <path d="M 34.28125 27.484375 
Q 23.390625 27.484375 19.1875 25 
Q 14.984375 22.515625 14.984375 16.5 
Q 14.984375 11.71875 18.140625 8.90625 
Q 21.296875 6.109375 26.703125 6.109375 
Q 34.1875 6.109375 38.703125 11.40625 
Q 43.21875 16.703125 43.21875 25.484375 
L 43.21875 27.484375 
z
M 52.203125 31.203125 
L 52.203125 0 
L 43.21875 0 
L 43.21875 8.296875 
Q 40.140625 3.328125 35.546875 0.953125 
Q 30.953125 -1.421875 24.3125 -1.421875 
Q 15.921875 -1.421875 10.953125 3.296875 
Q 6 8.015625 6 15.921875 
Q 6 25.140625 12.171875 29.828125 
Q 18.359375 34.515625 30.609375 34.515625 
L 43.21875 34.515625 
L 43.21875 35.40625 
Q 43.21875 41.609375 39.140625 45 
Q 35.0625 48.390625 27.6875 48.390625 
Q 23 48.390625 18.546875 47.265625 
Q 14.109375 46.140625 10.015625 43.890625 
L 10.015625 52.203125 
Q 14.9375 54.109375 19.578125 55.046875 
Q 24.21875 56 28.609375 56 
Q 40.484375 56 46.34375 49.84375 
Q 52.203125 43.703125 52.203125 31.203125 
z
" id="DejaVuSans-97"/>
      <path d="M 2.984375 54.6875 
L 12.5 54.6875 
L 29.59375 8.796875 
L 46.6875 54.6875 
L 56.203125 54.6875 
L 35.6875 0 
L 23.484375 0 
z
" id="DejaVuSans-118"/>
      <path d="M 56.203125 29.59375 
L 56.203125 25.203125 
L 14.890625 25.203125 
Q 15.484375 15.921875 20.484375 11.0625 
Q 25.484375 6.203125 34.421875 6.203125 
Q 39.59375 6.203125 44.453125 7.46875 
Q 49.3125 8.734375 54.109375 11.28125 
L 54.109375 2.78125 
Q 49.265625 0.734375 44.1875 -0.34375 
Q 39.109375 -1.421875 33.890625 -1.421875 
Q 20.796875 -1.421875 13.15625 6.1875 
Q 5.515625 13.8125 5.515625 26.8125 
Q 5.515625 40.234375 12.765625 48.109375 
Q 20.015625 56 32.328125 56 
Q 43.359375 56 49.78125 48.890625 
Q 56.203125 41.796875 56.203125 29.59375 
z
M 47.21875 32.234375 
Q 47.125 39.59375 43.09375 43.984375 
Q 39.0625 48.390625 32.421875 48.390625 
Q 24.90625 48.390625 20.390625 44.140625 
Q 15.875 39.890625 15.1875 32.171875 
z
" id="DejaVuSans-101"/>
      <path d="M 9.421875 75.984375 
L 18.40625 75.984375 
L 18.40625 0 
L 9.421875 0 
z
" id="DejaVuSans-108"/>
      <path d="M 54.890625 33.015625 
L 54.890625 0 
L 45.90625 0 
L 45.90625 32.71875 
Q 45.90625 40.484375 42.875 44.328125 
Q 39.84375 48.1875 33.796875 48.1875 
Q 26.515625 48.1875 22.3125 43.546875 
Q 18.109375 38.921875 18.109375 30.90625 
L 18.109375 0 
L 9.078125 0 
L 9.078125 54.6875 
L 18.109375 54.6875 
L 18.109375 46.1875 
Q 21.34375 51.125 25.703125 53.5625 
Q 30.078125 56 35.796875 56 
Q 45.21875 56 50.046875 50.171875 
Q 54.890625 44.34375 54.890625 33.015625 
z
" id="DejaVuSans-110"/>
      <path d="M 45.40625 27.984375 
Q 45.40625 37.75 41.375 43.109375 
Q 37.359375 48.484375 30.078125 48.484375 
Q 22.859375 48.484375 18.828125 43.109375 
Q 14.796875 37.75 14.796875 27.984375 
Q 14.796875 18.265625 18.828125 12.890625 
Q 22.859375 7.515625 30.078125 7.515625 
Q 37.359375 7.515625 41.375 12.890625 
Q 45.40625 18.265625 45.40625 27.984375 
z
M 54.390625 6.78125 
Q 54.390625 -7.171875 48.1875 -13.984375 
Q 42 -20.796875 29.203125 -20.796875 
Q 24.46875 -20.796875 20.265625 -20.09375 
Q 16.0625 -19.390625 12.109375 -17.921875 
L 12.109375 -9.1875 
Q 16.0625 -11.328125 19.921875 -12.34375 
Q 23.78125 -13.375 27.78125 -13.375 
Q 36.625 -13.375 41.015625 -8.765625 
Q 45.40625 -4.15625 45.40625 5.171875 
L 45.40625 9.625 
Q 42.625 4.78125 38.28125 2.390625 
Q 33.9375 0 27.875 0 
Q 17.828125 0 11.671875 7.65625 
Q 5.515625 15.328125 5.515625 27.984375 
Q 5.515625 40.671875 11.671875 48.328125 
Q 17.828125 56 27.875 56 
Q 33.9375 56 38.28125 53.609375 
Q 42.625 51.21875 45.40625 46.390625 
L 45.40625 54.6875 
L 54.390625 54.6875 
z
" id="DejaVuSans-103"/>
      <path d="M 18.3125 70.21875 
L 18.3125 54.6875 
L 36.8125 54.6875 
L 36.8125 47.703125 
L 18.3125 47.703125 
L 18.3125 18.015625 
Q 18.3125 11.328125 20.140625 9.421875 
Q 21.96875 7.515625 27.59375 7.515625 
L 36.8125 7.515625 
L 36.8125 0 
L 27.59375 0 
Q 17.1875 0 13.234375 3.875 
Q 9.28125 7.765625 9.28125 18.015625 
L 9.28125 47.703125 
L 2.6875 47.703125 
L 2.6875 54.6875 
L 9.28125 54.6875 
L 9.28125 70.21875 
z
" id="DejaVuSans-116"/>
      <path d="M 54.890625 33.015625 
L 54.890625 0 
L 45.90625 0 
L 45.90625 32.71875 
Q 45.90625 40.484375 42.875 44.328125 
Q 39.84375 48.1875 33.796875 48.1875 
Q 26.515625 48.1875 22.3125 43.546875 
Q 18.109375 38.921875 18.109375 30.90625 
L 18.109375 0 
L 9.078125 0 
L 9.078125 75.984375 
L 18.109375 75.984375 
L 18.109375 46.1875 
Q 21.34375 51.125 25.703125 53.5625 
Q 30.078125 56 35.796875 56 
Q 45.21875 56 50.046875 50.171875 
Q 54.890625 44.34375 54.890625 33.015625 
z
" id="DejaVuSans-104"/>
      <path id="DejaVuSans-32"/>
      <path d="M 8.59375 75.984375 
L 29.296875 75.984375 
L 29.296875 69 
L 17.578125 69 
L 17.578125 -6.203125 
L 29.296875 -6.203125 
L 29.296875 -13.1875 
L 8.59375 -13.1875 
z
" id="DejaVuSans-91"/>
      <path d="M 52 44.1875 
Q 55.375 50.25 60.0625 53.125 
Q 64.75 56 71.09375 56 
Q 79.640625 56 84.28125 50.015625 
Q 88.921875 44.046875 88.921875 33.015625 
L 88.921875 0 
L 79.890625 0 
L 79.890625 32.71875 
Q 79.890625 40.578125 77.09375 44.375 
Q 74.3125 48.1875 68.609375 48.1875 
Q 61.625 48.1875 57.5625 43.546875 
Q 53.515625 38.921875 53.515625 30.90625 
L 53.515625 0 
L 44.484375 0 
L 44.484375 32.71875 
Q 44.484375 40.625 41.703125 44.40625 
Q 38.921875 48.1875 33.109375 48.1875 
Q 26.21875 48.1875 22.15625 43.53125 
Q 18.109375 38.875 18.109375 30.90625 
L 18.109375 0 
L 9.078125 0 
L 9.078125 54.6875 
L 18.109375 54.6875 
L 18.109375 46.1875 
Q 21.1875 51.21875 25.484375 53.609375 
Q 29.78125 56 35.6875 56 
Q 41.65625 56 45.828125 52.96875 
Q 50 49.953125 52 44.1875 
z
" id="DejaVuSans-109"/>
      <path d="M 30.421875 75.984375 
L 30.421875 -13.1875 
L 9.71875 -13.1875 
L 9.71875 -6.203125 
L 21.390625 -6.203125 
L 21.390625 69 
L 9.71875 69 
L 9.71875 75.984375 
z
" id="DejaVuSans-93"/>
     </defs>
     <g transform="translate(192.967812 335.860562)scale(0.1 -0.1)">
      <use xlink:href="#DejaVuSans-87"/>
      <use x="92.501953" xlink:href="#DejaVuSans-97"/>
      <use x="153.78125" xlink:href="#DejaVuSans-118"/>
      <use x="212.960938" xlink:href="#DejaVuSans-101"/>
      <use x="274.484375" xlink:href="#DejaVuSans-108"/>
      <use x="302.267578" xlink:href="#DejaVuSans-101"/>
      <use x="363.791016" xlink:href="#DejaVuSans-110"/>
      <use x="427.169922" xlink:href="#DejaVuSans-103"/>
      <use x="490.646484" xlink:href="#DejaVuSans-116"/>
      <use x="529.855469" xlink:href="#DejaVuSans-104"/>
      <use x="593.234375" xlink:href="#DejaVuSans-32"/>
      <use x="625.021484" xlink:href="#DejaVuSans-91"/>
      <use x="664.035156" xlink:href="#DejaVuSans-110"/>
      <use x="727.414062" xlink:href="#DejaVuSans-109"/>
      <use x="824.826172" xlink:href="#DejaVuSans-93"/>
     </g>
    </g>
   </g>
   <g id="matplotlib.axis_2">
    <g id="ytick_1">
     <g id="line2d_19">
      <path clip-path="url(#p78e9d58727)" d="M 57.6 284.98609 
L 414.72 284.98609 
" style="fill:none;stroke:#b0b0b0;stroke-dasharray:0.8,1.32;stroke-dashoffset:0;stroke-width:0.8;"/>
     </g>
     <g id="line2d_20">
      <defs>
       <path d="M 0 0 
L -3.5 0 
" id="mb071bc814b" style="stroke:#000000;stroke-width:0.8;"/>
      </defs>
      <g>
       <use style="stroke:#000000;stroke-width:0.8;" x="57.6" xlink:href="#mb071bc814b" y="284.98609"/>
      </g>
     </g>
     <g id="text_11">
      <!-- −0.2 -->
      <defs>
       <path d="M 10.59375 35.5 
L 73.1875 35.5 
L 73.1875 27.203125 
L 10.59375 27.203125 
z
" id="DejaVuSans-8722"/>
       <path d="M 10.6875 12.40625 
L 21 12.40625 
L 21 0 
L 10.6875 0 
z
" id="DejaVuSans-46"/>
       <path d="M 19.1875 8.296875 
L 53.609375 8.296875 
L 53.609375 0 
L 7.328125 0 
L 7.328125 8.296875 
Q 12.9375 14.109375 22.625 23.890625 
Q 32.328125 33.6875 34.8125 36.53125 
Q 39.546875 41.84375 41.421875 45.53125 
Q 43.3125 49.21875 43.3125 52.78125 
Q 43.3125 58.59375 39.234375 62.25 
Q 35.15625 65.921875 28.609375 65.921875 
Q 23.96875 65.921875 18.8125 64.3125 
Q 13.671875 62.703125 7.8125 59.421875 
L 7.8125 69.390625 
Q 13.765625 71.78125 18.9375 73 
Q 24.125 74.21875 28.421875 74.21875 
Q 39.75 74.21875 46.484375 68.546875 
Q 53.21875 62.890625 53.21875 53.421875 
Q 53.21875 48.921875 51.53125 44.890625 
Q 49.859375 40.875 45.40625 35.40625 
Q 44.1875 33.984375 37.640625 27.21875 
Q 31.109375 20.453125 19.1875 8.296875 
z
" id="DejaVuSans-50"/>
      </defs>
      <g transform="translate(26.317187 288.785309)scale(0.1 -0.1)">
       <use xlink:href="#DejaVuSans-8722"/>
       <use x="83.789062" xlink:href="#DejaVuSans-48"/>
       <use x="147.412109" xlink:href="#DejaVuSans-46"/>
       <use x="179.199219" xlink:href="#DejaVuSans-50"/>
      </g>
     </g>
    </g>
    <g id="ytick_2">
     <g id="line2d_21">
      <path clip-path="url(#p78e9d58727)" d="M 57.6 255.033175 
L 414.72 255.033175 
" style="fill:none;stroke:#b0b0b0;stroke-dasharray:0.8,1.32;stroke-dashoffset:0;stroke-width:0.8;"/>
     </g>
     <g id="line2d_22">
      <g>
       <use style="stroke:#000000;stroke-width:0.8;" x="57.6" xlink:href="#mb071bc814b" y="255.033175"/>
      </g>
     </g>
     <g id="text_12">
      <!-- 0.0 -->
      <g transform="translate(34.696875 258.832394)scale(0.1 -0.1)">
       <use xlink:href="#DejaVuSans-48"/>
       <use x="63.623047" xlink:href="#DejaVuSans-46"/>
       <use x="95.410156" xlink:href="#DejaVuSans-48"/>
      </g>
     </g>
    </g>
    <g id="ytick_3">
     <g id="line2d_23">
      <path clip-path="url(#p78e9d58727)" d="M 57.6 225.080261 
L 414.72 225.080261 
" style="fill:none;stroke:#b0b0b0;stroke-dasharray:0.8,1.32;stroke-dashoffset:0;stroke-width:0.8;"/>
     </g>
     <g id="line2d_24">
      <g>
       <use style="stroke:#000000;stroke-width:0.8;" x="57.6" xlink:href="#mb071bc814b" y="225.080261"/>
      </g>
     </g>
     <g id="text_13">
      <!-- 0.2 -->
      <g transform="translate(34.696875 228.87948)scale(0.1 -0.1)">
       <use xlink:href="#DejaVuSans-48"/>
       <use x="63.623047" xlink:href="#DejaVuSans-46"/>
       <use x="95.410156" xlink:href="#DejaVuSans-50"/>
      </g>
     </g>
    </g>
    <g id="ytick_4">
     <g id="line2d_25">
      <path clip-path="url(#p78e9d58727)" d="M 57.6 195.127346 
L 414.72 195.127346 
" style="fill:none;stroke:#b0b0b0;stroke-dasharray:0.8,1.32;stroke-dashoffset:0;stroke-width:0.8;"/>
     </g>
     <g id="line2d_26">
      <g>
       <use style="stroke:#000000;stroke-width:0.8;" x="57.6" xlink:href="#mb071bc814b" y="195.127346"/>
      </g>
     </g>
     <g id="text_14">
      <!-- 0.4 -->
      <g transform="translate(34.696875 198.926565)scale(0.1 -0.1)">
       <use xlink:href="#DejaVuSans-48"/>
       <use x="63.623047" xlink:href="#DejaVuSans-46"/>
       <use x="95.410156" xlink:href="#DejaVuSans-52"/>
      </g>
     </g>
    </g>
    <g id="ytick_5">
     <g id="line2d_27">
      <path clip-path="url(#p78e9d58727)" d="M 57.6 165.174432 
L 414.72 165.174432 
" style="fill:none;stroke:#b0b0b0;stroke-dasharray:0.8,1.32;stroke-dashoffset:0;stroke-width:0.8;"/>
     </g>
     <g id="line2d_28">
      <g>
       <use style="stroke:#000000;stroke-width:0.8;" x="57.6" xlink:href="#mb071bc814b" y="165.174432"/>
      </g>
     </g>
     <g id="text_15">
      <!-- 0.6 -->
      <g transform="translate(34.696875 168.973651)scale(0.1 -0.1)">
       <use xlink:href="#DejaVuSans-48"/>
       <use x="63.623047" xlink:href="#DejaVuSans-46"/>
       <use x="95.410156" xlink:href="#DejaVuSans-54"/>
      </g>
     </g>
    </g>
    <g id="ytick_6">
     <g id="line2d_29">
      <path clip-path="url(#p78e9d58727)" d="M 57.6 135.221517 
L 414.72 135.221517 
" style="fill:none;stroke:#b0b0b0;stroke-dasharray:0.8,1.32;stroke-dashoffset:0;stroke-width:0.8;"/>
     </g>
     <g id="line2d_30">
      <g>
       <use style="stroke:#000000;stroke-width:0.8;" x="57.6" xlink:href="#mb071bc814b" y="135.221517"/>
      </g>
     </g>
     <g id="text_16">
      <!-- 0.8 -->
      <g transform="translate(34.696875 139.020736)scale(0.1 -0.1)">
       <use xlink:href="#DejaVuSans-48"/>
       <use x="63.623047" xlink:href="#DejaVuSans-46"/>
       <use x="95.410156" xlink:href="#DejaVuSans-56"/>
      </g>
     </g>
    </g>
    <g id="ytick_7">
     <g id="line2d_31">
      <path clip-path="url(#p78e9d58727)" d="M 57.6 105.268603 
L 414.72 105.268603 
" style="fill:none;stroke:#b0b0b0;stroke-dasharray:0.8,1.32;stroke-dashoffset:0;stroke-width:0.8;"/>
     </g>
     <g id="line2d_32">
      <g>
       <use style="stroke:#000000;stroke-width:0.8;" x="57.6" xlink:href="#mb071bc814b" y="105.268603"/>
      </g>
     </g>
     <g id="text_17">
      <!-- 1.0 -->
      <defs>
       <path d="M 12.40625 8.296875 
L 28.515625 8.296875 
L 28.515625 63.921875 
L 10.984375 60.40625 
L 10.984375 69.390625 
L 28.421875 72.90625 
L 38.28125 72.90625 
L 38.28125 8.296875 
L 54.390625 8.296875 
L 54.390625 0 
L 12.40625 0 
z
" id="DejaVuSans-49"/>
      </defs>
      <g transform="translate(34.696875 109.067822)scale(0.1 -0.1)">
       <use xlink:href="#DejaVuSans-49"/>
       <use x="63.623047" xlink:href="#DejaVuSans-46"/>
       <use x="95.410156" xlink:href="#DejaVuSans-48"/>
      </g>
     </g>
    </g>
    <g id="ytick_8">
     <g id="line2d_33">
      <path clip-path="url(#p78e9d58727)" d="M 57.6 75.315688 
L 414.72 75.315688 
" style="fill:none;stroke:#b0b0b0;stroke-dasharray:0.8,1.32;stroke-dashoffset:0;stroke-width:0.8;"/>
     </g>
     <g id="line2d_34">
      <g>
       <use style="stroke:#000000;stroke-width:0.8;" x="57.6" xlink:href="#mb071bc814b" y="75.315688"/>
      </g>
     </g>
     <g id="text_18">
      <!-- 1.2 -->
      <g transform="translate(34.696875 79.114907)scale(0.1 -0.1)">
       <use xlink:href="#DejaVuSans-49"/>
       <use x="63.623047" xlink:href="#DejaVuSans-46"/>
       <use x="95.410156" xlink:href="#DejaVuSans-50"/>
      </g>
     </g>
    </g>
    <g id="ytick_9">
     <g id="line2d_35">
      <path clip-path="url(#p78e9d58727)" d="M 57.6 45.362774 
L 414.72 45.362774 
" style="fill:none;stroke:#b0b0b0;stroke-dasharray:0.8,1.32;stroke-dashoffset:0;stroke-width:0.8;"/>
     </g>
     <g id="line2d_36">
      <g>
       <use style="stroke:#000000;stroke-width:0.8;" x="57.6" xlink:href="#mb071bc814b" y="45.362774"/>
      </g>
     </g>
     <g id="text_19">
      <!-- 1.4 -->
      <g transform="translate(34.696875 49.161993)scale(0.1 -0.1)">
       <use xlink:href="#DejaVuSans-49"/>
       <use x="63.623047" xlink:href="#DejaVuSans-46"/>
       <use x="95.410156" xlink:href="#DejaVuSans-52"/>
      </g>
     </g>
    </g>
    <g id="text_20">
     <!-- Color matching functions -->
     <defs>
      <path d="M 64.40625 67.28125 
L 64.40625 56.890625 
Q 59.421875 61.53125 53.78125 63.8125 
Q 48.140625 66.109375 41.796875 66.109375 
Q 29.296875 66.109375 22.65625 58.46875 
Q 16.015625 50.828125 16.015625 36.375 
Q 16.015625 21.96875 22.65625 14.328125 
Q 29.296875 6.6875 41.796875 6.6875 
Q 48.140625 6.6875 53.78125 8.984375 
Q 59.421875 11.28125 64.40625 15.921875 
L 64.40625 5.609375 
Q 59.234375 2.09375 53.4375 0.328125 
Q 47.65625 -1.421875 41.21875 -1.421875 
Q 24.65625 -1.421875 15.125 8.703125 
Q 5.609375 18.84375 5.609375 36.375 
Q 5.609375 53.953125 15.125 64.078125 
Q 24.65625 74.21875 41.21875 74.21875 
Q 47.75 74.21875 53.53125 72.484375 
Q 59.328125 70.75 64.40625 67.28125 
z
" id="DejaVuSans-67"/>
      <path d="M 30.609375 48.390625 
Q 23.390625 48.390625 19.1875 42.75 
Q 14.984375 37.109375 14.984375 27.296875 
Q 14.984375 17.484375 19.15625 11.84375 
Q 23.34375 6.203125 30.609375 6.203125 
Q 37.796875 6.203125 41.984375 11.859375 
Q 46.1875 17.53125 46.1875 27.296875 
Q 46.1875 37.015625 41.984375 42.703125 
Q 37.796875 48.390625 30.609375 48.390625 
z
M 30.609375 56 
Q 42.328125 56 49.015625 48.375 
Q 55.71875 40.765625 55.71875 27.296875 
Q 55.71875 13.875 49.015625 6.21875 
Q 42.328125 -1.421875 30.609375 -1.421875 
Q 18.84375 -1.421875 12.171875 6.21875 
Q 5.515625 13.875 5.515625 27.296875 
Q 5.515625 40.765625 12.171875 48.375 
Q 18.84375 56 30.609375 56 
z
" id="DejaVuSans-111"/>
      <path d="M 41.109375 46.296875 
Q 39.59375 47.171875 37.8125 47.578125 
Q 36.03125 48 33.890625 48 
Q 26.265625 48 22.1875 43.046875 
Q 18.109375 38.09375 18.109375 28.8125 
L 18.109375 0 
L 9.078125 0 
L 9.078125 54.6875 
L 18.109375 54.6875 
L 18.109375 46.1875 
Q 20.953125 51.171875 25.484375 53.578125 
Q 30.03125 56 36.53125 56 
Q 37.453125 56 38.578125 55.875 
Q 39.703125 55.765625 41.0625 55.515625 
z
" id="DejaVuSans-114"/>
      <path d="M 48.78125 52.59375 
L 48.78125 44.1875 
Q 44.96875 46.296875 41.140625 47.34375 
Q 37.3125 48.390625 33.40625 48.390625 
Q 24.65625 48.390625 19.8125 42.84375 
Q 14.984375 37.3125 14.984375 27.296875 
Q 14.984375 17.28125 19.8125 11.734375 
Q 24.65625 6.203125 33.40625 6.203125 
Q 37.3125 6.203125 41.140625 7.25 
Q 44.96875 8.296875 48.78125 10.40625 
L 48.78125 2.09375 
Q 45.015625 0.34375 40.984375 -0.53125 
Q 36.96875 -1.421875 32.421875 -1.421875 
Q 20.0625 -1.421875 12.78125 6.34375 
Q 5.515625 14.109375 5.515625 27.296875 
Q 5.515625 40.671875 12.859375 48.328125 
Q 20.21875 56 33.015625 56 
Q 37.15625 56 41.109375 55.140625 
Q 45.0625 54.296875 48.78125 52.59375 
z
" id="DejaVuSans-99"/>
      <path d="M 9.421875 54.6875 
L 18.40625 54.6875 
L 18.40625 0 
L 9.421875 0 
z
M 9.421875 75.984375 
L 18.40625 75.984375 
L 18.40625 64.59375 
L 9.421875 64.59375 
z
" id="DejaVuSans-105"/>
      <path d="M 37.109375 75.984375 
L 37.109375 68.5 
L 28.515625 68.5 
Q 23.6875 68.5 21.796875 66.546875 
Q 19.921875 64.59375 19.921875 59.515625 
L 19.921875 54.6875 
L 34.71875 54.6875 
L 34.71875 47.703125 
L 19.921875 47.703125 
L 19.921875 0 
L 10.890625 0 
L 10.890625 47.703125 
L 2.296875 47.703125 
L 2.296875 54.6875 
L 10.890625 54.6875 
L 10.890625 58.5 
Q 10.890625 67.625 15.140625 71.796875 
Q 19.390625 75.984375 28.609375 75.984375 
z
" id="DejaVuSans-102"/>
      <path d="M 8.5 21.578125 
L 8.5 54.6875 
L 17.484375 54.6875 
L 17.484375 21.921875 
Q 17.484375 14.15625 20.5 10.265625 
Q 23.53125 6.390625 29.59375 6.390625 
Q 36.859375 6.390625 41.078125 11.03125 
Q 45.3125 15.671875 45.3125 23.6875 
L 45.3125 54.6875 
L 54.296875 54.6875 
L 54.296875 0 
L 45.3125 0 
L 45.3125 8.40625 
Q 42.046875 3.421875 37.71875 1 
Q 33.40625 -1.421875 27.6875 -1.421875 
Q 18.265625 -1.421875 13.375 4.4375 
Q 8.5 10.296875 8.5 21.578125 
z
M 31.109375 56 
z
" id="DejaVuSans-117"/>
      <path d="M 44.28125 53.078125 
L 44.28125 44.578125 
Q 40.484375 46.53125 36.375 47.5 
Q 32.28125 48.484375 27.875 48.484375 
Q 21.1875 48.484375 17.84375 46.4375 
Q 14.5 44.390625 14.5 40.28125 
Q 14.5 37.15625 16.890625 35.375 
Q 19.28125 33.59375 26.515625 31.984375 
L 29.59375 31.296875 
Q 39.15625 29.25 43.1875 25.515625 
Q 47.21875 21.78125 47.21875 15.09375 
Q 47.21875 7.46875 41.1875 3.015625 
Q 35.15625 -1.421875 24.609375 -1.421875 
Q 20.21875 -1.421875 15.453125 -0.5625 
Q 10.6875 0.296875 5.421875 2 
L 5.421875 11.28125 
Q 10.40625 8.6875 15.234375 7.390625 
Q 20.0625 6.109375 24.8125 6.109375 
Q 31.15625 6.109375 34.5625 8.28125 
Q 37.984375 10.453125 37.984375 14.40625 
Q 37.984375 18.0625 35.515625 20.015625 
Q 33.0625 21.96875 24.703125 23.78125 
L 21.578125 24.515625 
Q 13.234375 26.265625 9.515625 29.90625 
Q 5.8125 33.546875 5.8125 39.890625 
Q 5.8125 47.609375 11.28125 51.796875 
Q 16.75 56 26.8125 56 
Q 31.78125 56 36.171875 55.265625 
Q 40.578125 54.546875 44.28125 53.078125 
z
" id="DejaVuSans-115"/>
     </defs>
     <g transform="translate(20.2375 237.33425)rotate(-90)scale(0.1 -0.1)">
      <use xlink:href="#DejaVuSans-67"/>
      <use x="69.824219" xlink:href="#DejaVuSans-111"/>
      <use x="131.005859" xlink:href="#DejaVuSans-108"/>
      <use x="158.789062" xlink:href="#DejaVuSans-111"/>
      <use x="219.970703" xlink:href="#DejaVuSans-114"/>
      <use x="261.083984" xlink:href="#DejaVuSans-32"/>
      <use x="292.871094" xlink:href="#DejaVuSans-109"/>
      <use x="390.283203" xlink:href="#DejaVuSans-97"/>
      <use x="451.5625" xlink:href="#DejaVuSans-116"/>
      <use x="490.771484" xlink:href="#DejaVuSans-99"/>
      <use x="545.751953" xlink:href="#DejaVuSans-104"/>
      <use x="609.130859" xlink:href="#DejaVuSans-105"/>
      <use x="636.914062" xlink:href="#DejaVuSans-110"/>
      <use x="700.292969" xlink:href="#DejaVuSans-103"/>
      <use x="763.769531" xlink:href="#DejaVuSans-32"/>
      <use x="795.556641" xlink:href="#DejaVuSans-102"/>
      <use x="830.761719" xlink:href="#DejaVuSans-117"/>
      <use x="894.140625" xlink:href="#DejaVuSans-110"/>
      <use x="957.519531" xlink:href="#DejaVuSans-99"/>
      <use x="1012.5" xlink:href="#DejaVuSans-116"/>
      <use x="1051.708984" xlink:href="#DejaVuSans-105"/>
      <use x="1079.492188" xlink:href="#DejaVuSans-111"/>
      <use x="1140.673828" xlink:href="#DejaVuSans-110"/>
      <use x="1204.052734" xlink:href="#DejaVuSans-115"/>
     </g>
    </g>
   </g>
   <g id="line2d_37">
    <path clip-path="url(#p78e9d58727)" d="M 73.832727 255.012749 
L 90.065455 254.905633 
L 98.181818 254.674409 
L 103.051636 254.382935 
L 108.733091 253.951295 
L 111.168 253.898561 
L 113.602909 254.013351 
L 116.037818 254.342912 
L 118.472727 254.877838 
L 121.719273 255.861446 
L 124.965818 257.168843 
L 127.400727 258.36114 
L 129.835636 259.750919 
L 132.270545 261.352572 
L 134.705455 263.095793 
L 144.445091 270.443801 
L 148.503273 272.941745 
L 151.749818 274.707008 
L 156.619636 277.045695 
L 162.301091 279.649042 
L 164.736 281.027007 
L 167.170909 282.656837 
L 170.417455 285.200185 
L 172.040727 286.72746 
L 176.910545 291.480605 
L 179.345455 293.369404 
L 180.968727 294.376973 
L 182.592 295.100596 
L 184.215273 295.452161 
L 185.838545 295.424237 
L 187.461818 294.927698 
L 188.273455 294.487005 
L 189.896727 293.213026 
L 191.52 291.522993 
L 193.143273 289.41491 
L 194.766545 286.961954 
L 197.201455 282.73375 
L 199.636364 277.934404 
L 202.071273 272.526294 
L 204.506182 266.540806 
L 206.941091 259.97715 
L 209.376 252.871069 
L 212.622545 242.539813 
L 215.869091 231.275596 
L 219.115636 219.170105 
L 223.173818 203.05141 
L 228.855273 179.403482 
L 234.536727 155.837185 
L 237.783273 143.220345 
L 240.218182 134.499851 
L 242.653091 126.597845 
L 245.088 119.619787 
L 246.711273 115.560873 
L 248.334545 112.115783 
L 249.957818 109.475619 
L 251.581091 107.488587 
L 253.204364 106.129044 
L 254.016 105.658548 
L 254.827636 105.378668 
L 255.639273 105.268603 
L 256.450909 105.349154 
L 257.262545 105.678439 
L 258.074182 106.166653 
L 258.885818 106.863202 
L 259.697455 107.707491 
L 261.320727 109.89275 
L 262.944 112.685597 
L 264.567273 116.072065 
L 266.190545 120.041266 
L 267.813818 124.600824 
L 269.437091 129.784303 
L 271.872 138.487481 
L 275.930182 154.211462 
L 278.365091 163.40976 
L 282.423273 177.925946 
L 286.481455 191.671387 
L 289.728 201.93396 
L 292.162909 209.036262 
L 294.597818 215.435039 
L 297.032727 221.195543 
L 299.467636 226.351342 
L 301.902545 230.949666 
L 304.337455 235.012895 
L 306.772364 238.511817 
L 308.395636 240.537837 
L 310.018909 242.323341 
L 311.642182 243.836642 
L 314.077091 245.745821 
L 316.512 247.295165 
L 320.570182 249.528134 
L 323.005091 250.618825 
L 326.251636 251.749915 
L 328.686545 252.386308 
L 331.933091 253.029533 
L 336.802909 253.677115 
L 340.861091 254.066159 
L 346.542545 254.444014 
L 361.152 254.862269 
L 370.891636 254.974755 
L 379.819636 255.003965 
L 398.487273 255.033175 
L 398.487273 255.033175 
" style="fill:none;stroke:#ff0000;stroke-linecap:square;stroke-width:1.5;"/>
   </g>
   <g id="line2d_38">
    <path clip-path="url(#p78e9d58727)" d="M 73.832727 255.050946 
L 93.312 255.167428 
L 103.863273 255.625383 
L 109.544727 256.00431 
L 112.791273 255.969625 
L 115.226182 255.761577 
L 117.661091 255.359604 
L 120.096 254.757521 
L 122.530909 253.992618 
L 125.777455 252.742285 
L 128.212364 251.621164 
L 130.647273 250.316438 
L 133.082182 248.834678 
L 135.517091 247.186592 
L 139.575273 244.040724 
L 142.821818 241.277543 
L 146.068364 238.201647 
L 149.314909 234.74179 
L 152.561455 230.917082 
L 156.619636 225.666904 
L 159.054545 222.23483 
L 161.489455 218.35018 
L 163.112727 215.43718 
L 164.736 212.186438 
L 166.359273 208.603419 
L 168.794182 202.578139 
L 170.417455 198.072678 
L 172.040727 192.972069 
L 174.475636 184.340582 
L 178.533818 168.783259 
L 186.650182 136.30844 
L 188.273455 130.881861 
L 189.896727 126.176277 
L 191.52 122.013668 
L 193.143273 118.302622 
L 194.766545 115.063026 
L 196.389818 112.3378 
L 198.013091 110.097779 
L 199.636364 108.300763 
L 201.259636 106.93553 
L 202.882909 105.972915 
L 204.506182 105.425608 
L 206.129455 105.268603 
L 207.752727 105.492864 
L 209.376 106.102175 
L 210.999273 107.040049 
L 212.622545 108.324053 
L 214.245818 109.883916 
L 215.869091 111.785752 
L 217.492364 113.985892 
L 219.115636 116.515315 
L 220.738909 119.396465 
L 223.173818 124.341125 
L 225.608727 129.922381 
L 228.043636 136.119731 
L 231.290182 145.234926 
L 234.536727 155.138446 
L 238.594909 168.306322 
L 247.522909 197.503903 
L 249.957818 204.770797 
L 253.204364 213.727021 
L 255.639273 219.882203 
L 258.074182 225.403273 
L 260.509091 230.277785 
L 262.944 234.54005 
L 264.567273 237.062329 
L 267.002182 240.376311 
L 269.437091 243.196862 
L 271.872 245.606092 
L 274.306909 247.60038 
L 276.741818 249.238062 
L 279.176727 250.555056 
L 281.611636 251.632959 
L 284.046545 252.463958 
L 286.481455 253.142238 
L 290.539636 253.922716 
L 295.409455 254.459667 
L 303.525818 254.850515 
L 309.207273 254.956907 
L 370.08 255.029764 
L 383.877818 255.021952 
L 389.559273 255.03952 
L 398.487273 255.033175 
L 398.487273 255.033175 
" style="fill:none;stroke:#008000;stroke-linecap:square;stroke-width:1.5;"/>
   </g>
   <g id="line2d_39">
    <path clip-path="url(#p78e9d58727)" d="M 73.832727 254.487098 
L 77.079273 254.243594 
L 79.514182 253.890746 
L 82.760727 253.143048 
L 84.384 252.647528 
L 86.007273 251.992227 
L 88.442182 250.530604 
L 92.500364 247.548485 
L 94.123636 245.776017 
L 95.746909 243.12157 
L 97.370182 239.660759 
L 98.993455 235.427073 
L 100.616727 230.260852 
L 102.24 223.843227 
L 103.863273 215.779098 
L 105.486545 206.186212 
L 106.298182 200.801912 
L 108.733091 181.28077 
L 111.168 161.449599 
L 113.602909 143.904058 
L 115.226182 133.918364 
L 116.849455 125.562717 
L 118.472727 118.711141 
L 120.096 113.523255 
L 120.907636 111.458606 
L 121.719273 109.721705 
L 122.530909 108.295693 
L 123.342545 107.222529 
L 124.154182 106.418251 
L 124.965818 105.849324 
L 125.777455 105.498846 
L 126.589091 105.324813 
L 127.400727 105.268603 
L 129.024 105.551272 
L 132.270545 106.849123 
L 133.893818 107.880839 
L 134.705455 108.590209 
L 135.517091 109.484416 
L 137.140364 111.802561 
L 138.763636 114.902167 
L 140.386909 118.825272 
L 142.010182 123.823847 
L 142.821818 126.776925 
L 144.445091 134.304574 
L 154.184727 183.254733 
L 156.619636 193.951982 
L 159.054545 203.500221 
L 160.677818 209.01909 
L 162.301091 213.96833 
L 163.924364 218.365377 
L 165.547636 222.252354 
L 167.170909 225.688166 
L 168.794182 228.714654 
L 170.417455 231.382768 
L 172.040727 233.718967 
L 174.475636 236.759592 
L 180.157091 243.226971 
L 182.592 245.647426 
L 184.215273 247.044479 
L 186.650182 248.795816 
L 188.273455 249.723152 
L 190.708364 250.819727 
L 193.954909 251.970629 
L 198.824727 253.331826 
L 202.071273 254.047746 
L 206.129455 254.719039 
L 210.187636 255.17244 
L 215.057455 255.496092 
L 220.738909 255.655807 
L 231.290182 255.630784 
L 258.074182 255.193247 
L 329.498182 255.033168 
L 398.487273 255.033175 
L 398.487273 255.033175 
" style="fill:none;stroke:#0000ff;stroke-linecap:square;stroke-width:1.5;"/>
   </g>
   <g id="line2d_40">
    <path clip-path="url(#p78e9d58727)" d="M 73.832727 249.296614 
L 75.456 248.182615 
L 77.079273 246.685004 
L 77.890909 245.729102 
L 79.514182 243.064348 
L 81.137455 239.586476 
L 82.760727 235.341493 
L 84.384 230.158361 
L 86.007273 223.732377 
L 87.630545 215.643662 
L 89.253818 206.045384 
L 90.065455 200.652001 
L 92.500364 181.129395 
L 94.935273 161.299597 
L 97.370182 143.774217 
L 98.993455 133.817303 
L 100.616727 125.513495 
L 102.24 118.704811 
L 103.863273 113.550567 
L 104.674909 111.510343 
L 105.486545 109.784055 
L 106.298182 108.382203 
L 107.109818 107.334376 
L 107.921455 106.569676 
L 108.733091 106.030378 
L 109.544727 105.71526 
L 110.356364 105.583016 
L 111.168 105.581604 
L 111.979636 105.705338 
L 113.602909 106.307706 
L 116.849455 107.983804 
L 118.472727 109.375062 
L 120.096 111.414156 
L 121.719273 114.151905 
L 123.342545 117.632174 
L 124.965818 121.95904 
L 126.589091 127.330759 
L 128.212364 134.45584 
L 133.893818 161.202886 
L 136.328727 171.585658 
L 138.763636 180.962608 
L 140.386909 186.598231 
L 142.010182 191.589815 
L 143.633455 195.765173 
L 145.256727 199.095936 
L 146.88 201.673953 
L 147.691636 202.685681 
L 148.503273 203.514489 
L 149.314909 204.160494 
L 150.126545 204.647135 
L 150.938182 204.952191 
L 151.749818 205.114417 
L 152.561455 205.100977 
L 153.373091 204.935311 
L 154.184727 204.589281 
L 154.996364 204.075713 
L 155.808 203.352145 
L 157.431273 201.412368 
L 159.054545 198.953029 
L 160.677818 196.186917 
L 162.301091 192.97021 
L 163.924364 189.247622 
L 166.359273 182.80224 
L 168.794182 175.45646 
L 181.780364 134.369911 
L 185.838545 122.912195 
L 189.896727 112.157885 
L 193.954909 102.006864 
L 199.636364 88.526322 
L 203.694545 79.506333 
L 206.941091 73.007066 
L 209.376 68.551109 
L 211.810909 64.534676 
L 214.245818 61.035112 
L 215.869091 59.014709 
L 217.492364 57.249503 
L 219.115636 55.791071 
L 220.738909 54.697023 
L 222.362182 53.964758 
L 223.985455 53.607098 
L 225.608727 53.614534 
L 227.232 53.989276 
L 228.855273 54.721814 
L 230.478545 55.824971 
L 232.101818 57.364256 
L 233.725091 59.480423 
L 235.348364 62.051459 
L 236.971636 65.037393 
L 238.594909 68.427724 
L 240.218182 72.286853 
L 241.841455 76.696823 
L 244.276364 84.116666 
L 246.711273 92.307031 
L 249.146182 101.272846 
L 251.581091 111.011787 
L 254.016 121.652062 
L 262.132364 158.553799 
L 265.378909 171.694416 
L 268.625455 183.962858 
L 271.872 195.387656 
L 274.306909 203.252373 
L 276.741818 210.448813 
L 279.176727 216.859775 
L 281.611636 222.57681 
L 284.046545 227.668028 
L 286.481455 232.176994 
L 288.916364 236.094199 
L 291.351273 239.463207 
L 292.974545 241.393062 
L 294.597818 243.049371 
L 296.221091 244.476805 
L 298.656 246.258719 
L 301.090909 247.743648 
L 303.525818 249.114691 
L 305.960727 250.268579 
L 308.395636 251.227646 
L 310.830545 251.982383 
L 314.077091 252.736015 
L 318.135273 253.387481 
L 323.816727 254.004893 
L 330.309818 254.439204 
L 341.672727 254.81602 
L 361.963636 254.99912 
L 398.487273 255.033175 
L 398.487273 255.033175 
" style="fill:none;stroke:#000000;stroke-linecap:square;stroke-width:1.5;"/>
   </g>
   <g id="line2d_41">
    <path clip-path="url(#p78e9d58727)" d="M 73.832727 254.594276 
L 77.079273 254.380451 
L 79.514182 254.096941 
L 82.760727 253.496303 
L 85.195636 252.83723 
L 86.818909 252.196626 
L 89.253818 250.87848 
L 93.312 248.26008 
L 94.123636 247.491355 
L 95.746909 245.324553 
L 97.370182 242.492328 
L 98.993455 239.04042 
L 100.616727 234.838833 
L 102.24 229.60001 
L 103.863273 223.01967 
L 105.486545 215.197939 
L 106.298182 210.788726 
L 108.733091 194.809945 
L 111.168 178.498296 
L 113.602909 163.974267 
L 115.226182 155.640016 
L 116.849455 148.601396 
L 118.472727 142.735335 
L 120.096 138.169956 
L 121.719273 134.701102 
L 122.530909 133.340503 
L 123.342545 132.263414 
L 124.154182 131.404475 
L 124.965818 130.716073 
L 125.777455 130.203981 
L 127.400727 129.544964 
L 129.024 129.245919 
L 133.082182 129.129202 
L 134.705455 129.468423 
L 136.328727 130.281742 
L 137.140364 130.883033 
L 138.763636 132.530144 
L 140.386909 134.775874 
L 142.010182 137.820053 
L 142.821818 139.664898 
L 144.445091 144.565972 
L 150.126545 163.025032 
L 152.561455 169.945237 
L 154.184727 174.051748 
L 155.808 177.767982 
L 157.431273 180.983415 
L 159.054545 183.557513 
L 159.866182 184.518483 
L 160.677818 185.294051 
L 161.489455 185.884793 
L 162.301091 186.288108 
L 163.112727 186.483654 
L 163.924364 186.486002 
L 164.736 186.288803 
L 165.547636 185.90288 
L 166.359273 185.331983 
L 167.170909 184.566589 
L 167.982545 183.641039 
L 169.605818 181.229244 
L 171.229091 178.017528 
L 172.852364 173.807054 
L 174.475636 168.914831 
L 176.910545 160.847223 
L 179.345455 151.915234 
L 182.592 138.544421 
L 188.273455 114.581881 
L 190.708364 105.654893 
L 193.143273 97.448123 
L 195.578182 90.047696 
L 198.013091 83.68849 
L 200.448 78.20833 
L 202.071273 74.982246 
L 203.694545 72.105502 
L 205.317818 69.576223 
L 206.941091 67.371465 
L 208.564364 65.485457 
L 210.187636 63.893381 
L 211.810909 62.589465 
L 213.434182 61.51845 
L 215.057455 60.68841 
L 216.680727 60.140182 
L 218.304 59.851397 
L 219.927273 59.874865 
L 221.550545 60.257619 
L 223.173818 60.952476 
L 224.797091 61.928269 
L 226.420364 63.203317 
L 228.043636 64.789742 
L 229.666909 66.682919 
L 231.290182 68.859905 
L 233.725091 72.65274 
L 236.16 77.069872 
L 238.594909 82.150962 
L 241.029818 87.76715 
L 244.276364 95.916548 
L 247.522909 104.575988 
L 250.769455 113.769777 
L 255.639273 128.251611 
L 261.320727 145.841868 
L 270.248727 173.85138 
L 274.306909 186.743358 
L 277.553455 196.321745 
L 280.8 204.798715 
L 283.234909 210.654281 
L 286.481455 217.83275 
L 289.728 224.289555 
L 292.162909 228.614799 
L 294.597818 232.464102 
L 297.032727 235.863431 
L 299.467636 238.873815 
L 301.902545 241.519346 
L 304.337455 243.840712 
L 306.772364 245.815694 
L 309.207273 247.48498 
L 311.642182 248.824477 
L 314.077091 249.886118 
L 317.323636 251.016285 
L 321.381818 252.218728 
L 325.44 253.093257 
L 328.686545 253.58794 
L 333.556364 254.062279 
L 338.426182 254.392068 
L 355.470545 254.888625 
L 398.487273 255.033175 
L 398.487273 255.033175 
" style="fill:none;stroke:#000000;stroke-dasharray:1.5,2.475;stroke-dashoffset:0;stroke-width:1.5;"/>
   </g>
   <g id="line2d_42">
    <path clip-path="url(#p78e9d58727)" d="M 73.832727 255.021954 
L 94.123636 254.918458 
L 103.863273 254.633437 
L 111.168 254.409864 
L 114.414545 254.515766 
L 117.661091 254.833211 
L 121.719273 255.488194 
L 125.777455 256.410588 
L 129.024 257.352485 
L 133.082182 258.810656 
L 137.140364 260.503196 
L 143.633455 263.20351 
L 148.503273 264.871425 
L 153.373091 266.284088 
L 159.866182 267.92807 
L 163.924364 269.04104 
L 167.170909 270.208506 
L 170.417455 271.60572 
L 172.852364 272.892781 
L 176.910545 275.05593 
L 179.345455 276.09356 
L 181.780364 276.868768 
L 183.403636 277.170844 
L 185.026909 277.257432 
L 186.650182 277.11525 
L 188.273455 276.707526 
L 189.896727 276.007653 
L 191.52 275.079217 
L 193.143273 273.92112 
L 195.578182 271.831519 
L 198.013091 269.411613 
L 200.448 266.655916 
L 202.882909 263.584991 
L 205.317818 260.186976 
L 207.752727 256.481241 
L 210.999273 251.07618 
L 214.245818 245.141346 
L 217.492364 238.712256 
L 221.550545 230.075542 
L 226.420364 219.10602 
L 235.348364 198.760391 
L 238.594909 191.962802 
L 241.029818 187.314142 
L 243.464727 183.134494 
L 245.899636 179.484022 
L 247.522909 177.418769 
L 249.146182 175.746375 
L 250.769455 174.480327 
L 252.392727 173.573084 
L 254.016 172.972751 
L 255.639273 172.758531 
L 256.450909 172.802782 
L 258.074182 173.251883 
L 259.697455 174.098358 
L 261.320727 175.298851 
L 262.944 176.833129 
L 264.567273 178.693519 
L 266.190545 180.874039 
L 267.813818 183.378877 
L 269.437091 186.226472 
L 271.872 191.007649 
L 275.930182 199.645773 
L 279.176727 206.328564 
L 283.234909 214.219514 
L 287.293091 221.683293 
L 290.539636 227.192763 
L 292.974545 230.982153 
L 295.409455 234.375155 
L 297.844364 237.423662 
L 300.279273 240.159769 
L 302.714182 242.582115 
L 305.149091 244.708107 
L 307.584 246.536385 
L 310.018909 248.050902 
L 312.453818 249.257805 
L 314.888727 250.228789 
L 318.135273 251.303563 
L 322.193455 252.42033 
L 325.44 253.0936 
L 329.498182 253.682882 
L 335.179636 254.188174 
L 343.296 254.595824 
L 349.789091 254.783602 
L 359.528727 254.929386 
L 398.487273 255.033175 
L 398.487273 255.033175 
" style="fill:none;stroke:#ff0000;stroke-dasharray:1.5,2.475;stroke-dashoffset:0;stroke-width:1.5;"/>
   </g>
   <g id="line2d_43">
    <path clip-path="url(#p78e9d58727)" d="M 73.832727 255.055755 
L 91.688727 255.175036 
L 100.616727 255.539706 
L 111.979636 256.272868 
L 114.414545 256.085179 
L 116.849455 255.645806 
L 119.284364 254.962467 
L 121.719273 254.059991 
L 124.965818 252.549632 
L 127.400727 251.202346 
L 129.835636 249.622589 
L 133.082182 247.15733 
L 135.517091 245.063262 
L 139.575273 241.066105 
L 142.821818 237.555191 
L 146.068364 233.646941 
L 149.314909 229.250827 
L 152.561455 224.391131 
L 156.619636 217.720225 
L 159.054545 213.359412 
L 161.489455 208.423555 
L 163.112727 204.72228 
L 164.736 200.591868 
L 166.359273 196.039265 
L 168.794182 188.38351 
L 170.417455 182.658846 
L 172.040727 176.177982 
L 174.475636 165.210766 
L 178.533818 145.443544 
L 186.650182 104.180856 
L 188.273455 97.285813 
L 189.896727 91.306872 
L 191.52 86.017837 
L 193.143273 81.302561 
L 194.766545 77.186313 
L 196.389818 73.723625 
L 198.013091 70.877442 
L 199.636364 68.594143 
L 201.259636 66.85947 
L 202.882909 65.636366 
L 203.694545 65.214328 
L 205.317818 64.771602 
L 206.129455 64.741463 
L 206.941091 64.824796 
L 207.752727 65.02641 
L 209.376 65.800604 
L 210.999273 66.992272 
L 212.622545 68.623735 
L 214.245818 70.605706 
L 215.869091 73.022189 
L 217.492364 75.8177 
L 219.115636 79.031599 
L 220.738909 82.692405 
L 223.173818 88.975117 
L 225.608727 96.066693 
L 228.043636 103.941081 
L 231.290182 115.522899 
L 234.536727 128.106368 
L 238.594909 144.837545 
L 247.522909 181.936157 
L 249.957818 191.169513 
L 253.204364 202.549342 
L 255.639273 210.370151 
L 258.074182 217.385254 
L 260.509091 223.578836 
L 262.944 228.994494 
L 264.567273 232.199316 
L 267.002182 236.410081 
L 269.437091 239.993889 
L 271.872 243.055069 
L 273.495273 244.787571 
L 275.118545 246.323511 
L 277.553455 248.277885 
L 279.988364 249.822926 
L 282.423273 251.092697 
L 284.858182 252.079134 
L 287.293091 252.849204 
L 289.728 253.45314 
L 292.162909 253.878547 
L 295.409455 254.304473 
L 302.714182 254.788171 
L 324.628364 255.044013 
L 332.744727 255.026502 
L 341.672727 255.032006 
L 350.600727 255.027628 
L 364.398545 255.030705 
L 374.949818 255.035039 
L 398.487273 255.033175 
L 398.487273 255.033175 
" style="fill:none;stroke:#008000;stroke-dasharray:1.5,2.475;stroke-dashoffset:0;stroke-width:1.5;"/>
   </g>
   <g id="line2d_44">
    <path clip-path="url(#p78e9d58727)" d="M 73.832727 254.582917 
L 77.890909 254.305956 
L 81.137455 253.807227 
L 84.384 253.066134 
L 86.007273 252.525817 
L 88.442182 251.320663 
L 92.500364 248.861811 
L 94.123636 247.400355 
L 95.746909 245.21168 
L 97.370182 242.358131 
L 98.993455 238.867323 
L 100.616727 234.60761 
L 102.24 229.316075 
L 103.863273 222.666946 
L 105.486545 214.757307 
L 106.298182 210.317782 
L 108.733091 194.221982 
L 111.168 177.870554 
L 113.602909 163.403699 
L 115.226182 155.170179 
L 116.849455 148.280683 
L 118.472727 142.631342 
L 120.096 138.353766 
L 120.907636 136.651397 
L 121.719273 135.219267 
L 122.530909 134.043475 
L 123.342545 133.158617 
L 124.154182 132.495465 
L 124.965818 132.026367 
L 125.777455 131.737386 
L 127.400727 131.547544 
L 129.024 131.780613 
L 132.270545 132.850733 
L 133.893818 133.701415 
L 134.705455 134.286313 
L 136.328727 135.906565 
L 137.952 138.122721 
L 139.575273 141.011093 
L 141.198545 144.668353 
L 142.821818 149.281836 
L 144.445091 155.488621 
L 154.184727 195.849577 
L 156.619636 204.669798 
L 159.054545 212.542623 
L 160.677818 217.093105 
L 162.301091 221.17391 
L 163.924364 224.799414 
L 165.547636 228.00435 
L 167.170909 230.837286 
L 168.794182 233.332721 
L 170.417455 235.532666 
L 172.040727 237.458936 
L 174.475636 239.966027 
L 180.157091 245.298586 
L 182.592 247.294328 
L 185.026909 248.962834 
L 187.461818 250.301024 
L 189.896727 251.283872 
L 193.143273 252.290792 
L 197.201455 253.286612 
L 201.259636 254.086087 
L 205.317818 254.683995 
L 210.999273 255.207432 
L 216.680727 255.465615 
L 223.985455 255.571024 
L 241.029818 255.385249 
L 258.074182 255.165159 
L 335.991273 255.033216 
L 398.487273 255.033175 
L 398.487273 255.033175 
" style="fill:none;stroke:#0000ff;stroke-dasharray:1.5,2.475;stroke-dashoffset:0;stroke-width:1.5;"/>
   </g>
   <g id="patch_3">
    <path d="M 57.6 307.584 
L 57.6 41.472 
" style="fill:none;stroke:#000000;stroke-linecap:square;stroke-linejoin:miter;stroke-width:0.8;"/>
   </g>
   <g id="patch_4">
    <path d="M 414.72 307.584 
L 414.72 41.472 
" style="fill:none;stroke:#000000;stroke-linecap:square;stroke-linejoin:miter;stroke-width:0.8;"/>
   </g>
   <g id="patch_5">
    <path d="M 57.6 307.584 
L 414.72 307.584 
" style="fill:none;stroke:#000000;stroke-linecap:square;stroke-linejoin:miter;stroke-width:0.8;"/>
   </g>
   <g id="patch_6">
    <path d="M 57.6 41.472 
L 414.72 41.472 
" style="fill:none;stroke:#000000;stroke-linecap:square;stroke-linejoin:miter;stroke-width:0.8;"/>
   </g>
   <g id="legend_1">
    <g id="patch_7">
     <path d="M 365.8325 122.862625 
L 407.72 122.862625 
Q 409.72 122.862625 409.72 120.862625 
L 409.72 48.472 
Q 409.72 46.472 407.72 46.472 
L 365.8325 46.472 
Q 363.8325 46.472 363.8325 48.472 
L 363.8325 120.862625 
Q 363.8325 122.862625 365.8325 122.862625 
z
" style="fill:#ffffff;opacity:0.8;stroke:#cccccc;stroke-linejoin:miter;"/>
    </g>
    <g id="line2d_45">
     <path d="M 367.8325 54.570438 
L 387.8325 54.570438 
" style="fill:none;stroke:#ff0000;stroke-linecap:square;stroke-width:1.5;"/>
    </g>
    <g id="line2d_46"/>
    <g id="text_21">
     <!-- R -->
     <defs>
      <path d="M 44.390625 34.1875 
Q 47.5625 33.109375 50.5625 29.59375 
Q 53.5625 26.078125 56.59375 19.921875 
L 66.609375 0 
L 56 0 
L 46.6875 18.703125 
Q 43.0625 26.03125 39.671875 28.421875 
Q 36.28125 30.8125 30.421875 30.8125 
L 19.671875 30.8125 
L 19.671875 0 
L 9.8125 0 
L 9.8125 72.90625 
L 32.078125 72.90625 
Q 44.578125 72.90625 50.734375 67.671875 
Q 56.890625 62.453125 56.890625 51.90625 
Q 56.890625 45.015625 53.6875 40.46875 
Q 50.484375 35.9375 44.390625 34.1875 
z
M 19.671875 64.796875 
L 19.671875 38.921875 
L 32.078125 38.921875 
Q 39.203125 38.921875 42.84375 42.21875 
Q 46.484375 45.515625 46.484375 51.90625 
Q 46.484375 58.296875 42.84375 61.546875 
Q 39.203125 64.796875 32.078125 64.796875 
z
" id="DejaVuSans-82"/>
     </defs>
     <g transform="translate(395.8325 58.070438)scale(0.1 -0.1)">
      <use xlink:href="#DejaVuSans-82"/>
     </g>
    </g>
    <g id="line2d_47">
     <path d="M 367.8325 69.248563 
L 387.8325 69.248563 
" style="fill:none;stroke:#008000;stroke-linecap:square;stroke-width:1.5;"/>
    </g>
    <g id="line2d_48"/>
    <g id="text_22">
     <!-- G -->
     <defs>
      <path d="M 59.515625 10.40625 
L 59.515625 29.984375 
L 43.40625 29.984375 
L 43.40625 38.09375 
L 69.28125 38.09375 
L 69.28125 6.78125 
Q 63.578125 2.734375 56.6875 0.65625 
Q 49.8125 -1.421875 42 -1.421875 
Q 24.90625 -1.421875 15.25 8.5625 
Q 5.609375 18.5625 5.609375 36.375 
Q 5.609375 54.25 15.25 64.234375 
Q 24.90625 74.21875 42 74.21875 
Q 49.125 74.21875 55.546875 72.453125 
Q 61.96875 70.703125 67.390625 67.28125 
L 67.390625 56.78125 
Q 61.921875 61.421875 55.765625 63.765625 
Q 49.609375 66.109375 42.828125 66.109375 
Q 29.4375 66.109375 22.71875 58.640625 
Q 16.015625 51.171875 16.015625 36.375 
Q 16.015625 21.625 22.71875 14.15625 
Q 29.4375 6.6875 42.828125 6.6875 
Q 48.046875 6.6875 52.140625 7.59375 
Q 56.25 8.5 59.515625 10.40625 
z
" id="DejaVuSans-71"/>
     </defs>
     <g transform="translate(395.8325 72.748563)scale(0.1 -0.1)">
      <use xlink:href="#DejaVuSans-71"/>
     </g>
    </g>
    <g id="line2d_49">
     <path d="M 367.8325 83.926688 
L 387.8325 83.926688 
" style="fill:none;stroke:#0000ff;stroke-linecap:square;stroke-width:1.5;"/>
    </g>
    <g id="line2d_50"/>
    <g id="text_23">
     <!-- B -->
     <defs>
      <path d="M 19.671875 34.8125 
L 19.671875 8.109375 
L 35.5 8.109375 
Q 43.453125 8.109375 47.28125 11.40625 
Q 51.125 14.703125 51.125 21.484375 
Q 51.125 28.328125 47.28125 31.5625 
Q 43.453125 34.8125 35.5 34.8125 
z
M 19.671875 64.796875 
L 19.671875 42.828125 
L 34.28125 42.828125 
Q 41.5 42.828125 45.03125 45.53125 
Q 48.578125 48.25 48.578125 53.8125 
Q 48.578125 59.328125 45.03125 62.0625 
Q 41.5 64.796875 34.28125 64.796875 
z
M 9.8125 72.90625 
L 35.015625 72.90625 
Q 46.296875 72.90625 52.390625 68.21875 
Q 58.5 63.53125 58.5 54.890625 
Q 58.5 48.1875 55.375 44.234375 
Q 52.25 40.28125 46.1875 39.3125 
Q 53.46875 37.75 57.5 32.78125 
Q 61.53125 27.828125 61.53125 20.40625 
Q 61.53125 10.640625 54.890625 5.3125 
Q 48.25 0 35.984375 0 
L 9.8125 0 
z
" id="DejaVuSans-66"/>
     </defs>
     <g transform="translate(395.8325 87.426688)scale(0.1 -0.1)">
      <use xlink:href="#DejaVuSans-66"/>
     </g>
    </g>
    <g id="line2d_51">
     <path d="M 367.8325 98.604813 
L 387.8325 98.604813 
" style="fill:none;stroke:#000000;stroke-linecap:square;stroke-width:1.5;"/>
    </g>
    <g id="line2d_52"/>
    <g id="text_24">
     <!-- W -->
     <g transform="translate(395.8325 102.104813)scale(0.1 -0.1)">
      <use xlink:href="#DejaVuSans-87"/>
     </g>
    </g>
    <g id="line2d_53">
     <path d="M 367.8325 113.282938 
L 387.8325 113.282938 
" style="fill:none;stroke:#000000;stroke-dasharray:1.5,2.475;stroke-dashoffset:0;stroke-width:1.5;"/>
    </g>
    <g id="line2d_54"/>
    <g id="text_25">
     <!-- W -->
     <g transform="translate(395.8325 116.782938)scale(0.1 -0.1)">
      <use xlink:href="#DejaVuSans-87"/>
     </g>
    </g>
   </g>
  </g>
 </g>
 <defs>
  <clipPath id="p78e9d58727">
   <rect height="266.112" width="357.12" x="57.6" y="41.472"/>
  </clipPath>
 </defs>
</svg>
